<svg id="Capa_1" data-name="Capa 1" xmlns="http://www.w3.org/2000/svg" viewBox="0 0 26.11 28.22"><defs><style>.cls-1{fill:#818182;}</style></defs><path class="cls-1" d="M20.41,28.22H.56A.56.56,0,0,1,0,27.65V7.81a.56.56,0,0,1,.17-.4L7.41.17A.56.56,0,0,1,7.81,0h12.6A.57.57,0,0,1,21,.56V8.68a.57.57,0,0,1-.57.56.56.56,0,0,1-.56-.56V1.13H8L1.13,8V27.09H19.85V16.19a.56.56,0,0,1,.56-.56.57.57,0,0,1,.57.56V27.65a.57.57,0,0,1-.57.57" transform="translate(0 0)"/><path class="cls-1" d="M1.93,7.24H7.24V1.93ZM7.81,8.37H.56A.57.57,0,0,1,0,8a.58.58,0,0,1,.12-.62L7.41.17a.56.56,0,0,1,1,.39V7.81a.56.56,0,0,1-.56.56" transform="translate(0 0)"/><path class="cls-1" d="M5,14a.9.9,0,1,0,.89.89A.89.89,0,0,0,5,14m0,2.92a2,2,0,1,1,2-2,2,2,0,0,1-2,2" transform="translate(0 0)"/><path class="cls-1" d="M10.17,18.11a.9.9,0,1,0,.9.9.89.89,0,0,0-.9-.9m0,2.92a2,2,0,1,1,2-2,2,2,0,0,1-2,2" transform="translate(0 0)"/><path class="cls-1" d="M16,12.41a.9.9,0,1,0,.9.9.9.9,0,0,0-.9-.9m0,2.92a2,2,0,1,1,2-2,2,2,0,0,1-2,2" transform="translate(0 0)"/><path class="cls-1" d="M9.05,18.65a.54.54,0,0,1-.34-.12l-3-2.26a.57.57,0,0,1-.11-.79.58.58,0,0,1,.8-.1l3,2.26a.56.56,0,0,1,.11.79.58.58,0,0,1-.45.22" transform="translate(0 0)"/><path class="cls-1" d="M11.62,19.38a.55.55,0,0,1-.35-.12.56.56,0,0,1-.1-.79l3.48-4.37a.56.56,0,0,1,.79-.1.58.58,0,0,1,.09.8l-3.47,4.37a.56.56,0,0,1-.44.21" transform="translate(0 0)"/><path class="cls-1" d="M17,12.84a.56.56,0,0,1-.14-1.11l5.59-1.51a.57.57,0,0,1,.7.39.58.58,0,0,1-.4.7l-5.6,1.51a.39.39,0,0,1-.15,0" transform="translate(0 0)"/><path class="cls-1" d="M24.05,9.45a.93.93,0,0,0,0,1.85.93.93,0,1,0,0-1.85m0,3a2.06,2.06,0,1,1,2.06-2.06,2.06,2.06,0,0,1-2.06,2.06" transform="translate(0 0)"/></svg>