<svg id="Capa_1" data-name="Capa 1" xmlns="http://www.w3.org/2000/svg" viewBox="0 0 26.55 26.19"><defs><style>.cls-1{fill:#818182;}</style></defs><path class="cls-1" d="M18.91,17.21a1.88,1.88,0,0,1,.55.86h0a1.56,1.56,0,0,1,.08.42l.62-.38,2.54-1.54-.15-.2a1,1,0,0,0-1.21-.29Zm-.3,3.09a.5.5,0,0,1-.27-.07.56.56,0,0,1-.27-.48l0-.46a.51.51,0,0,1,.19-.39.42.42,0,0,0,.16-.51,1,1,0,0,0-.85-.68.52.52,0,0,1-.45-.45.51.51,0,0,1,.3-.55l3.45-1.59a2,2,0,0,1,2.48.61l.53.67a.53.53,0,0,1,.1.42.55.55,0,0,1-.25.36L20.71,19c-.66.4-1.23.77-1.74,1.14l-.09,0a.45.45,0,0,1-.27.08" transform="translate(0 0)"/><path class="cls-1" d="M13.89,20a3,3,0,0,0,1.6.91A1.83,1.83,0,0,0,17,20.38l.4-.34Zm.27,6.15A3.67,3.67,0,0,1,13,26L5.1,23.25a2.43,2.43,0,0,0-1.68,0L.73,24.38a.53.53,0,0,1-.4-1L3,22.31a3.37,3.37,0,0,1,2.42-.06L13.38,25a2.38,2.38,0,0,0,2.12-.28L19.57,22a51.1,51.1,0,0,0,4.33-3.31l1.41-1.21a.52.52,0,0,0,.07-.71.5.5,0,0,0-.67-.12l-4,2.42a19.47,19.47,0,0,0-3,2.14,2.84,2.84,0,0,1-2.36.83,4.8,4.8,0,0,1-2.86-2H9.94a.53.53,0,0,1-.53-.53A.52.52,0,0,1,9.94,19H18.2c.33-.22.3-.41.25-.59a1,1,0,0,0-.85-.68L8,16.34a3.34,3.34,0,0,0-1.6.15L1,18.39a.53.53,0,0,1-.68-.32.54.54,0,0,1,.33-.68l5.36-1.9a4.41,4.41,0,0,1,2.1-.21l9.6,1.38a2.08,2.08,0,0,1,1.71,1.41,1.71,1.71,0,0,1,.08.43l.62-.38,4-2.42a1.58,1.58,0,0,1,2.05.37A1.56,1.56,0,0,1,26,18.24l-1.41,1.21a49.92,49.92,0,0,1-4.43,3.39L16.1,25.59a3.49,3.49,0,0,1-1.94.6" transform="translate(0 0)"/><path class="cls-1" d="M7.89,12.57H9.44V9.12H7.89ZM10,13.63H7.36a.53.53,0,0,1-.53-.53V8.59a.53.53,0,0,1,.53-.53H10a.53.53,0,0,1,.53.53V13.1a.53.53,0,0,1-.53.53" transform="translate(0 0)"/><path class="cls-1" d="M12.5,12.57h1.55V7.27H12.5Zm2.08,1.06H12a.53.53,0,0,1-.53-.53V6.74A.53.53,0,0,1,12,6.21h2.61a.53.53,0,0,1,.53.53V13.1a.53.53,0,0,1-.53.53" transform="translate(0 0)"/><path class="cls-1" d="M17.12,12.57h1.54V5.43H17.12Zm2.07,1.06H16.58a.53.53,0,0,1-.53-.53V4.9a.54.54,0,0,1,.53-.54h2.61a.54.54,0,0,1,.53.54v8.2a.53.53,0,0,1-.53.53" transform="translate(0 0)"/><path class="cls-1" d="M22.12,13.63H4.43a.53.53,0,0,1-.53-.53.53.53,0,0,1,.53-.53H22.12a.52.52,0,0,1,.53.53.53.53,0,0,1-.53.53" transform="translate(0 0)"/><path class="cls-1" d="M6.9,6.59a.53.53,0,0,1-.38-.91L8.61,3.59a.54.54,0,0,1,.75,0l.83.83,2.66-2.65a.53.53,0,0,1,.75,0l1.05,1L17.32.16a.53.53,0,0,1,.75,0,.53.53,0,0,1,0,.75L15,4a.54.54,0,0,1-.75,0L13.22,2.89,10.57,5.55a.53.53,0,0,1-.75,0L9,4.72,7.27,6.44a.53.53,0,0,1-.37.15" transform="translate(0 0)"/></svg>