<svg id="Capa_1" data-name="Capa 1" xmlns="http://www.w3.org/2000/svg" viewBox="0 0 512.01 512"><defs><style>.cls-1{fill:#ff5911;}</style></defs><path class="cls-1" d="M356.41,483.59,210.81,338A201.72,201.72,0,0,0,256,210.67C256,98.93,165.07,8,53.33,8S-149.34,98.93-149.34,210.67-58.42,413.34,53.33,413.34a201.67,201.67,0,0,0,127.32-45.19l145.6,145.6a21.33,21.33,0,0,0,30.16-30.16ZM53.33,370.67c-88.24,0-160-71.77-160-160s71.76-160,160-160,160,71.76,160,160S141.56,370.67,53.33,370.67Z" transform="translate(149.34 -8)"/></svg>