<svg id="Capa_1" data-name="Capa 1" xmlns="http://www.w3.org/2000/svg" viewBox="0 0 25.84 15.25"><defs><style>.cls-1{fill:#818182;}</style></defs><path class="cls-1" d="M4.1,4.65,5.6,6.16c-.08.08-.14.18-.22.27-.23.27-.47.53-.68.82s-.29.5-.43.75a9.93,9.93,0,0,0-.49.91,6.88,6.88,0,0,0-.3.87,8.2,8.2,0,0,0-.3,1c-.07.32-.1.65-.14,1s-.1.54-.11.82H.79A12.11,12.11,0,0,1,4.1,4.65m18.81,7.88c0-.33-.09-.64-.13-1s-.05-.54-.11-.8a10.79,10.79,0,0,0-.36-1.14c-.08-.23-.14-.47-.24-.69a9.58,9.58,0,0,0-.59-1.09c-.11-.19-.21-.4-.33-.58a9.37,9.37,0,0,0-.8-1l-.12-.14,1.51-1.51a12.11,12.11,0,0,1,3.31,7.88ZM12.53,3a10.45,10.45,0,0,0-1.6.17c-.21,0-.4.13-.61.18a10.66,10.66,0,0,0-1.25.39c-.23.1-.43.23-.65.35a10.17,10.17,0,0,0-1,.55,7.37,7.37,0,0,0-.61.5,6.29,6.29,0,0,0-.63.5L4.63,4.09A12.05,12.05,0,0,1,12.53.82ZM19.69,5.6a8.57,8.57,0,0,0-.75-.6c-.17-.13-.31-.27-.48-.39A11.75,11.75,0,0,0,17.3,4c-.18-.09-.34-.2-.53-.28a10.22,10.22,0,0,0-1.33-.41,5.34,5.34,0,0,0-.53-.16A10.58,10.58,0,0,0,13.31,3V.82A12,12,0,0,1,21.2,4.09ZM17.06,9.19A.4.4,0,0,0,17,8.74a.39.39,0,0,0-.44-.07l-4.73,2.24a2.26,2.26,0,0,0-.87.75,2.37,2.37,0,0,0-.17.36,2,2,0,0,0-.24.51H3.75a8.08,8.08,0,0,1,.08-.86c0-.25,0-.5.11-.74s.2-.68.31-1,.14-.46.24-.68A7.59,7.59,0,0,1,5,8.3c.12-.2.21-.41.35-.6A7.9,7.9,0,0,1,6,6.86c.14-.16.27-.34.43-.5a9.82,9.82,0,0,1,.86-.71c.17-.13.32-.27.49-.39a9.06,9.06,0,0,1,1-.55c.18-.09.35-.21.53-.28a8.78,8.78,0,0,1,1.2-.38c.18,0,.34-.12.52-.15a8.91,8.91,0,0,1,3.66,0c.2,0,.39.12.59.17a10.4,10.4,0,0,1,1.12.35c.22.1.43.23.65.35a7.63,7.63,0,0,1,.89.48c.22.15.41.33.62.49s.51.39.74.61.36.42.54.63.4.45.58.7.29.5.43.75a8.51,8.51,0,0,1,.43.78,8.33,8.33,0,0,1,.29.84,7.63,7.63,0,0,1,.26.85,8.47,8.47,0,0,1,.13.9c0,.24.06.48.07.73H15.47Zm-3,4.39a1.59,1.59,0,0,1-1.09.86,1.4,1.4,0,0,1-1.24-.3l-.25.3.15-.39-.09-.1a1.34,1.34,0,0,1-.32-1,1.56,1.56,0,0,1,.88-1.32l3.74-1.78-1.39,2.91h0ZM3.31,13.32h7.22A2.15,2.15,0,0,0,11,14.47l.11.11.16.16a2.25,2.25,0,0,0,1.43.51,2,2,0,0,0,.48-.05,2.31,2.31,0,0,0,1.63-1.28l.29-.6H25.45a.4.4,0,0,0,.39-.4,12.88,12.88,0,0,0-3.79-9.13h0a12.89,12.89,0,0,0-18.26,0h0A12.89,12.89,0,0,0,0,12.92a.4.4,0,0,0,.39.4Z" transform="translate(0 0)"/></svg>