<svg id="Capa_1" data-name="Capa 1" xmlns="http://www.w3.org/2000/svg" viewBox="0 0 25.99 29.6"><defs><style>.cls-1{fill:#818182;}</style></defs><path class="cls-1" d="M18.7,11.06a4,4,0,0,0-.9.11,3.74,3.74,0,0,0,0,7.26,3.68,3.68,0,0,0,2-.05,3.58,3.58,0,0,0,1.68-1.07,3.64,3.64,0,0,0,1-2.51,3.76,3.76,0,0,0-2.67-3.58,3.53,3.53,0,0,0-1.08-.16m0,8.62a5.11,5.11,0,0,1-1.16-.14,4.88,4.88,0,1,1,6-4.74,4.79,4.79,0,0,1-1.28,3.28,4.86,4.86,0,0,1-3.6,1.6" transform="translate(0 0)"/><path class="cls-1" d="M25.42,22a.55.55,0,0,1-.41-.18l-3.53-3.7a.57.57,0,1,1,.82-.79L25.83,21a.57.57,0,0,1,0,.81.59.59,0,0,1-.39.16" transform="translate(0 0)"/><path class="cls-1" d="M1.14,28.46H19.38V19.63a5,5,0,0,1-1.84-.09,4.88,4.88,0,0,1,0-9.48A5.05,5.05,0,0,1,19.38,10V3.16H15V6.31a.57.57,0,0,1-.56.57H6a.57.57,0,0,1-.57-.57V3.16H1.14ZM20,29.6H.57A.56.56,0,0,1,0,29V2.59A.57.57,0,0,1,.57,2H6a.58.58,0,0,1,.57.57V5.74h7.3V2.59A.57.57,0,0,1,14.48,2H20a.57.57,0,0,1,.56.57v8.08a.57.57,0,0,1-.73.55,3.68,3.68,0,0,0-2-.05,3.74,3.74,0,0,0,0,7.26,3.68,3.68,0,0,0,2-.05.57.57,0,0,1,.73.55V29a.56.56,0,0,1-.56.57" transform="translate(0 0)"/><path class="cls-1" d="M3.42,26.19H17.1V19.41a4.88,4.88,0,0,1,0-9.22v-5H15V6.31a.57.57,0,0,1-.56.57H6a.57.57,0,0,1-.57-.57V5.17h-2Zm14.25,1.13H2.85a.56.56,0,0,1-.57-.57V4.6A.57.57,0,0,1,2.85,4H6a.58.58,0,0,1,.57.57V5.74h7.3V4.6A.57.57,0,0,1,14.48,4h3.19a.58.58,0,0,1,.57.57v6a.57.57,0,0,1-.44.55,3.74,3.74,0,0,0,0,7.26.57.57,0,0,1,.44.55v7.77a.57.57,0,0,1-.57.57" transform="translate(0 0)"/><path class="cls-1" d="M6.61,5.74h7.3V1.14H6.61Zm7.87,1.14H6a.58.58,0,0,1-.57-.57V.57A.57.57,0,0,1,6,0h8.44a.57.57,0,0,1,.57.57V6.31a.58.58,0,0,1-.57.57" transform="translate(0 0)"/></svg>