<svg id="Capa_1" data-name="Capa 1" xmlns="http://www.w3.org/2000/svg" viewBox="0 0 230.64 35.88"><defs><style>.cls-1{fill:#fff;}.cls-2{fill:#ff5911;}</style></defs><path class="cls-1" d="M336.68,279.7h7.86l8.86,14.59c.51.88,1,1.81,1.56,2.83s1,2,1.47,2.86l1.58,3.16h.09c-.09-1.14-.17-2.3-.23-3.47-.06-1-.1-2.07-.13-3.21s-.05-2.2-.05-3.16V279.7h7.37v33.61h-7.91l-8.76-14.41c-.52-.84-1-1.79-1.59-2.85s-1-2-1.49-2.94-1.07-2.12-1.58-3.2h-.09l.18,3.52c.06,1,.12,2.06.16,3.21s.07,2.2.07,3.16v13.51h-7.37Z" transform="translate(-336.68 -279.7)"/><path class="cls-1" d="M381.12,293.61a4.64,4.64,0,0,0-3.71,1.45,7.45,7.45,0,0,0-1.62,3.93H386a6.24,6.24,0,0,0-1.49-3.95,4.41,4.41,0,0,0-3.43-1.43m.36,20.43a13.7,13.7,0,0,1-5.29-1,11.52,11.52,0,0,1-4-2.69,11.78,11.78,0,0,1-2.53-4,13.85,13.85,0,0,1-.88-5,13.64,13.64,0,0,1,.91-5,12.08,12.08,0,0,1,2.53-4,11.31,11.31,0,0,1,3.88-2.69,13.55,13.55,0,0,1,9.65-.16,11.69,11.69,0,0,1,3.63,2.26,11.89,11.89,0,0,1,3,4.92,20.35,20.35,0,0,1,.9,6.51H375.74a7.43,7.43,0,0,0,1.81,4.25,5.26,5.26,0,0,0,4,1.54,5.41,5.41,0,0,0,2.73-.62,4.08,4.08,0,0,0,1.65-1.74h6.87a9.65,9.65,0,0,1-1.43,3,9.9,9.9,0,0,1-2.39,2.4,11.22,11.22,0,0,1-3.32,1.58,14.61,14.61,0,0,1-4.2.57" transform="translate(-336.68 -279.7)"/><path class="cls-1" d="M412.81,313.31v-3.43h-.14a9,9,0,0,1-3,3.12,8.31,8.31,0,0,1-4.2,1,8,8,0,0,1-6.28-2.42,9.18,9.18,0,0,1-2.17-6.39v-15.9h7.09v14.54a4.5,4.5,0,0,0,1,3.12,3.68,3.68,0,0,0,2.87,1.09,4.2,4.2,0,0,0,3.39-1.45,5.56,5.56,0,0,0,1.22-3.71V289.28h7v24Z" transform="translate(-336.68 -279.7)"/><path class="cls-1" d="M430.09,293.56h.13A8.52,8.52,0,0,1,433,290a6.85,6.85,0,0,1,3.88-1.08,4.24,4.24,0,0,1,1.5.18v6.19h-.18a8.82,8.82,0,0,0-1.5-.14,6,6,0,0,0-4.63,1.74,7.32,7.32,0,0,0-1.74,5.31v11.16h-7.09v-24h6.82Z" transform="translate(-336.68 -279.7)"/><path class="cls-1" d="M519.81,292.64h1.52l2.67,4.21.33.59.32.6.35.67h0c0-.24,0-.48,0-.72s0-.43,0-.67,0-.46,0-.66v-4h1.41v8h-1.53l-2.65-4.18c-.11-.18-.23-.38-.34-.6s-.22-.42-.33-.61l-.34-.67h0l0,.73c0,.2,0,.43,0,.66s0,.46,0,.66v4h-1.41Z" transform="translate(-336.68 -279.7)"/><path class="cls-1" d="M530.29,295.75a1.3,1.3,0,0,0-1,.42,2,2,0,0,0-.44,1.09h2.87a1.74,1.74,0,0,0-.41-1.11,1.25,1.25,0,0,0-1-.4m.07,5.08a3.17,3.17,0,0,1-1.23-.23,2.83,2.83,0,0,1-.93-.65,2.93,2.93,0,0,1-.57-1,3.48,3.48,0,0,1-.2-1.18,3.61,3.61,0,0,1,.2-1.21,2.9,2.9,0,0,1,.58-1,2.64,2.64,0,0,1,.91-.64,2.78,2.78,0,0,1,1.17-.23,2.83,2.83,0,0,1,1.12.21,2.54,2.54,0,0,1,.86.59,2.81,2.81,0,0,1,.62,1.11,4.73,4.73,0,0,1,.2,1.46h-4.3a2.06,2.06,0,0,0,.47,1.2,1.4,1.4,0,0,0,1.11.46,1.58,1.58,0,0,0,.82-.2,1.16,1.16,0,0,0,.46-.56H533a2.36,2.36,0,0,1-.33.72,2.29,2.29,0,0,1-.55.57,2.7,2.7,0,0,1-.78.38,3.19,3.19,0,0,1-1,.13" transform="translate(-336.68 -279.7)"/><path class="cls-1" d="M537.75,300.66v-.82h0a2.15,2.15,0,0,1-.72.72,1.82,1.82,0,0,1-1,.25,1.94,1.94,0,0,1-1.47-.54,2.06,2.06,0,0,1-.53-1.48V294.9h1.37v3.69a1,1,0,0,0,1.08,1.08,1.16,1.16,0,0,0,.93-.4,1.44,1.44,0,0,0,.34-1V294.9h1.36v5.76Z" transform="translate(-336.68 -279.7)"/><path class="cls-1" d="M541.66,295.94h0a1.75,1.75,0,0,1,1.65-1.12,1.06,1.06,0,0,1,.36.05v1.23h0a1.73,1.73,0,0,0-1.51.39,1.74,1.74,0,0,0-.45,1.28v2.89h-1.37V294.9h1.33Z" transform="translate(-336.68 -279.7)"/><path class="cls-1" d="M547.07,299.8a1.41,1.41,0,0,0,.67-.15,1.38,1.38,0,0,0,.48-.42,2,2,0,0,0,.29-.64,2.85,2.85,0,0,0,.11-.79,3,3,0,0,0-.11-.81,2.14,2.14,0,0,0-.29-.65,1.38,1.38,0,0,0-.48-.42,1.55,1.55,0,0,0-1.33,0,1.33,1.33,0,0,0-.49.42,1.93,1.93,0,0,0-.29.65,3,3,0,0,0-.1.81,2.85,2.85,0,0,0,.1.79,1.79,1.79,0,0,0,.29.64,1.33,1.33,0,0,0,.49.42,1.4,1.4,0,0,0,.66.15m0,1a3.11,3.11,0,0,1-1.21-.23A2.73,2.73,0,0,1,545,300a2.83,2.83,0,0,1-.6-1,3.25,3.25,0,0,1-.21-1.18,3.38,3.38,0,0,1,.21-1.21,2.79,2.79,0,0,1,.6-1,2.46,2.46,0,0,1,.93-.64,3.27,3.27,0,0,1,2.41,0,2.5,2.5,0,0,1,.92.64,2.77,2.77,0,0,1,.59,1,3.38,3.38,0,0,1,.21,1.21,3.25,3.25,0,0,1-.21,1.18,2.78,2.78,0,0,1-1.51,1.62,3.09,3.09,0,0,1-1.2.23" transform="translate(-336.68 -279.7)"/><path class="cls-1" d="M552.3,295.75h0a1.92,1.92,0,0,1,.73-.74,2.11,2.11,0,0,1,1.06-.26,1.93,1.93,0,0,1,1.46.54,2,2,0,0,1,.52,1.47v3.9h-1.36V297a1.1,1.1,0,0,0-.29-.81,1.06,1.06,0,0,0-.81-.29,1.29,1.29,0,0,0-.53.1,1.09,1.09,0,0,0-.41.29,1.35,1.35,0,0,0-.27.45,1.47,1.47,0,0,0-.1.56v3.37H551v-5.75h1.33Z" transform="translate(-336.68 -279.7)"/><path class="cls-1" d="M559.41,299.86a1.73,1.73,0,0,0,.63-.11,1.45,1.45,0,0,0,.45-.29,1.25,1.25,0,0,0,.28-.41,1.15,1.15,0,0,0,.1-.48v-.85a2.59,2.59,0,0,1-.5.22l-.62.16a3.35,3.35,0,0,0-1,.3.71.71,0,0,0-.35.67.86.86,0,0,0,.08.38.88.88,0,0,0,.22.25.82.82,0,0,0,.32.12,1.55,1.55,0,0,0,.37,0m1.63.8a.75.75,0,0,1-.12-.27,1.87,1.87,0,0,1-.07-.47h0a2.49,2.49,0,0,1-.7.63,2.16,2.16,0,0,1-1.12.25,2.88,2.88,0,0,1-.78-.11,1.65,1.65,0,0,1-1-.85,1.91,1.91,0,0,1-.14-.74,1.69,1.69,0,0,1,.17-.8,1.36,1.36,0,0,1,.49-.52,2.55,2.55,0,0,1,.75-.29,7.56,7.56,0,0,1,.94-.17,4.29,4.29,0,0,0,1.07-.24.56.56,0,0,0,.36-.54.77.77,0,0,0-.26-.61,1.15,1.15,0,0,0-.78-.23,1.35,1.35,0,0,0-.87.25.9.9,0,0,0-.3.68h-1.3a1.79,1.79,0,0,1,.63-1.31,2.55,2.55,0,0,1,.77-.41,3.33,3.33,0,0,1,1.06-.16,4.56,4.56,0,0,1,.88.08,1.86,1.86,0,0,1,.66.26,1.76,1.76,0,0,1,.82,1.64v3a2,2,0,0,0,.06.55.44.44,0,0,0,.16.25v.1Z" transform="translate(-336.68 -279.7)"/><rect class="cls-1" x="226.75" y="12.95" width="1.38" height="8.02"/><path class="cls-1" d="M521.29,309.29h1.94a1.54,1.54,0,0,0,1.07-.33,1.16,1.16,0,0,0,.37-.89,1.3,1.3,0,0,0-.33-.93,1.51,1.51,0,0,0-1.06-.32h-2Zm-1.48-3.69h3.77a3.15,3.15,0,0,1,1,.16,2.49,2.49,0,0,1,.82.44,2.2,2.2,0,0,1,.53.71,2.37,2.37,0,0,1,.19.95,2.11,2.11,0,0,1-.34,1.22,2.08,2.08,0,0,1-1.14.76v0a1.63,1.63,0,0,1,.91.59,2.4,2.4,0,0,1,.35,1.14c.06.59.11,1,.14,1.37s.1.52.21.57v.08h-1.51c-.1-.07-.16-.25-.19-.56s-.06-.73-.1-1.27a1.56,1.56,0,0,0-.41-1,1.58,1.58,0,0,0-1.08-.32h-1.71v3.19h-1.48Z" transform="translate(-336.68 -279.7)"/><path class="cls-1" d="M529.81,308.71a1.26,1.26,0,0,0-1,.42,2,2,0,0,0-.44,1.09h2.86a1.73,1.73,0,0,0-.4-1.11,1.25,1.25,0,0,0-1-.4m.08,5.08a3,3,0,0,1-1.23-.24,2.58,2.58,0,0,1-.93-.64,2.86,2.86,0,0,1-.57-1,3.27,3.27,0,0,1-.2-1.19,3.6,3.6,0,0,1,.2-1.2,2.9,2.9,0,0,1,.58-1,2.64,2.64,0,0,1,.91-.64,2.77,2.77,0,0,1,1.16-.24,2.85,2.85,0,0,1,1.13.21,2.53,2.53,0,0,1,.85.6,2.64,2.64,0,0,1,.63,1.11,5.05,5.05,0,0,1,.2,1.46h-4.3a2,2,0,0,0,.47,1.2,1.38,1.38,0,0,0,1.11.46,1.52,1.52,0,0,0,.81-.2,1.1,1.1,0,0,0,.46-.56h1.34a2.62,2.62,0,0,1-.33.72,2.33,2.33,0,0,1-.56.57,2.64,2.64,0,0,1-.77.38,3.23,3.23,0,0,1-1,.13" transform="translate(-336.68 -279.7)"/><path class="cls-1" d="M536.2,313.79a2.92,2.92,0,0,1-1.2-.24,2.62,2.62,0,0,1-.92-.64,2.75,2.75,0,0,1-.59-1,3.27,3.27,0,0,1-.21-1.19,3.36,3.36,0,0,1,.21-1.2,2.74,2.74,0,0,1,.58-1A2.46,2.46,0,0,1,535,308a2.89,2.89,0,0,1,1.2-.24,3.13,3.13,0,0,1,1,.15,3,3,0,0,1,.77.42,2,2,0,0,1,.54.66,2.53,2.53,0,0,1,.29.84h-1.34A1.32,1.32,0,0,0,537,309a1.26,1.26,0,0,0-.84-.27,1.53,1.53,0,0,0-.66.14,1.27,1.27,0,0,0-.47.42,1.79,1.79,0,0,0-.29.64,2.85,2.85,0,0,0-.1.79,2.78,2.78,0,0,0,.1.78,1.82,1.82,0,0,0,.29.63,1.36,1.36,0,0,0,.47.42,1.4,1.4,0,0,0,.66.15,1.25,1.25,0,0,0,.9-.32,1.31,1.31,0,0,0,.38-.88h1.34a2.49,2.49,0,0,1-.23.92,2.07,2.07,0,0,1-.53.71,2.33,2.33,0,0,1-.8.46,3.12,3.12,0,0,1-1,.17" transform="translate(-336.68 -279.7)"/><path class="cls-1" d="M542.34,312.76a1.32,1.32,0,0,0,1.15-.58,1.83,1.83,0,0,0,.29-.63,2.86,2.86,0,0,0,.11-.8,3,3,0,0,0-.11-.8,2.14,2.14,0,0,0-.29-.65,1.38,1.38,0,0,0-.48-.42,1.55,1.55,0,0,0-1.33,0,1.33,1.33,0,0,0-.49.42,1.93,1.93,0,0,0-.29.65,3,3,0,0,0-.1.8,2.87,2.87,0,0,0,.1.8,1.67,1.67,0,0,0,.29.63,1.35,1.35,0,0,0,.49.43,1.4,1.4,0,0,0,.66.15m0,1a3,3,0,0,1-1.22-.24,2.62,2.62,0,0,1-.92-.64,2.93,2.93,0,0,1-.6-1,3.27,3.27,0,0,1-.21-1.19,3.36,3.36,0,0,1,.21-1.2,2.79,2.79,0,0,1,.6-1,2.5,2.5,0,0,1,.92-.64,3,3,0,0,1,1.22-.24,2.92,2.92,0,0,1,1.2.24,2.5,2.5,0,0,1,.92.64,2.77,2.77,0,0,1,.59,1,3.36,3.36,0,0,1,.21,1.2,3.27,3.27,0,0,1-.21,1.19,2.91,2.91,0,0,1-.59,1,2.62,2.62,0,0,1-.92.64,2.92,2.92,0,0,1-1.2.24" transform="translate(-336.68 -279.7)"/><path class="cls-1" d="M545.5,307.86h1.43l.84,2.69q.09.29.18.63c.06.23.12.43.16.63l.15.67h0c0-.22.09-.44.14-.67a6.48,6.48,0,0,1,.16-.63,4.73,4.73,0,0,1,.18-.63l.87-2.69H551l-2,5.76h-1.5Z" transform="translate(-336.68 -279.7)"/><path class="cls-1" d="M554.11,308.71a1.26,1.26,0,0,0-1,.42,2,2,0,0,0-.44,1.09h2.87a1.79,1.79,0,0,0-.41-1.11,1.25,1.25,0,0,0-1-.4m.08,5.08a3,3,0,0,1-1.23-.24,2.58,2.58,0,0,1-.93-.64,2.86,2.86,0,0,1-.57-1,3.27,3.27,0,0,1-.2-1.19,3.6,3.6,0,0,1,.2-1.2,2.9,2.9,0,0,1,.58-1A2.64,2.64,0,0,1,553,308a2.77,2.77,0,0,1,1.16-.24,2.85,2.85,0,0,1,1.13.21,2.67,2.67,0,0,1,.86.6,2.74,2.74,0,0,1,.62,1.11,4.73,4.73,0,0,1,.2,1.46h-4.3a2,2,0,0,0,.47,1.2,1.4,1.4,0,0,0,1.11.46,1.52,1.52,0,0,0,.81-.2,1.1,1.1,0,0,0,.46-.56h1.34a2.36,2.36,0,0,1-.33.72,2.17,2.17,0,0,1-.56.57,2.64,2.64,0,0,1-.77.38,3.23,3.23,0,0,1-1,.13" transform="translate(-336.68 -279.7)"/><path class="cls-1" d="M559.19,308.9h0a1.75,1.75,0,0,1,1.64-1.12,1.09,1.09,0,0,1,.37.05v1.23h0a1.73,1.73,0,0,0-1.51.39,1.74,1.74,0,0,0-.45,1.28v2.89h-1.37v-5.76h1.32Z" transform="translate(-336.68 -279.7)"/><path class="cls-1" d="M563.18,315.58H563l-.32,0-.3,0-.17,0v-1.11h.08l.09,0h.48a.92.92,0,0,0,.55-.15.84.84,0,0,0,.29-.49v-.15a1.85,1.85,0,0,0,0-.25c0-.09,0-.19,0-.29a1.18,1.18,0,0,0-.06-.27l-2-5h1.46l.94,2.68c.06.18.12.37.18.58l.16.58.15.63h0c.05-.22.11-.43.16-.64s.11-.37.16-.58.12-.39.17-.57l.92-2.68h1.38l-2.23,6.08a5.05,5.05,0,0,1-.37.8,1.6,1.6,0,0,1-.41.5,1.28,1.28,0,0,1-.5.27,2.88,2.88,0,0,1-.63.07" transform="translate(-336.68 -279.7)"/><path class="cls-1" d="M478.12,292.93h.13a7.79,7.79,0,0,1,3-3.25,8.64,8.64,0,0,1,4.4-1.08,7.91,7.91,0,0,1,6.17,2.41A9.31,9.31,0,0,1,494,297.5v15.81h-7V298.85a4.77,4.77,0,0,0-1-3.18,3.73,3.73,0,0,0-3-1.2,4.18,4.18,0,0,0-3.34,1.49,5.65,5.65,0,0,0-1.27,3.8v13.55h-7.09v-24h6.87Z" transform="translate(-336.68 -279.7)"/><polygon class="cls-2" points="166.95 0 161.06 7.27 166.95 14.54 172.85 7.27 166.95 0"/><path class="cls-2" d="M454.83,297.11l9.69,12a12.7,12.7,0,1,0-19.38,0Z" transform="translate(-336.68 -279.7)"/></svg>