<svg id="Capa_1" data-name="Capa 1" xmlns="http://www.w3.org/2000/svg" viewBox="0 0 290.13 512"><defs><style>.cls-1{fill:#ff5911;}</style></defs><path class="cls-1" d="M298.67,25.6H213.33a8.54,8.54,0,0,0,0,17.07h85.34a8.54,8.54,0,0,0,0-17.07Z" transform="translate(-110.93 0)"/><path class="cls-1" d="M358.4,25.6h-8.53a8.54,8.54,0,1,0,0,17.07h8.53a8.54,8.54,0,0,0,0-17.07Z" transform="translate(-110.93 0)"/><path class="cls-1" d="M266.6,435.2H245.41a23.57,23.57,0,0,0-23.54,23.54v4.13A23.56,23.56,0,0,0,245.4,486.4h21.19a23.56,23.56,0,0,0,23.54-23.53v-4.13A23.56,23.56,0,0,0,266.6,435.2Zm6.47,27.66a6.47,6.47,0,0,1-6.47,6.47H245.41a6.48,6.48,0,0,1-6.48-6.47v-4.12a6.48,6.48,0,0,1,6.48-6.47h21.18a6.48,6.48,0,0,1,6.48,6.47Z" transform="translate(-110.93 0)"/><path class="cls-1" d="M370.23,0H141.78a30.89,30.89,0,0,0-30.85,30.85v450.3A30.89,30.89,0,0,0,141.78,512H370.22a30.88,30.88,0,0,0,30.85-30.84V30.85A30.88,30.88,0,0,0,370.23,0ZM384,481.15a13.79,13.79,0,0,1-13.77,13.78H141.78A13.79,13.79,0,0,1,128,481.16V30.85a13.79,13.79,0,0,1,13.78-13.78H370.22A13.79,13.79,0,0,1,384,30.85v450.3Z" transform="translate(-110.93 0)"/><path class="cls-1" d="M392.53,51.2H119.47a8.54,8.54,0,0,0-8.54,8.53v358.4a8.55,8.55,0,0,0,8.54,8.54H392.53a8.55,8.55,0,0,0,8.54-8.54V59.73A8.54,8.54,0,0,0,392.53,51.2ZM384,409.6H128V68.27H384Z" transform="translate(-110.93 0)"/></svg>